<?xml version="1.0" encoding="utf-8"?>
<!-- Generator: Adobe Illustrator 19.2.1, SVG Export Plug-In . SVG Version: 6.00 Build 0)  -->
<svg version="1.1" id="Layer_1" xmlns="http://www.w3.org/2000/svg" xmlns:xlink="http://www.w3.org/1999/xlink" x="0px" y="0px"
	 viewBox="0 0 48 48" style="enable-background:new 0 0 48 48;" xml:space="preserve">
<style type="text/css">
	.st0{fill:#007BB5;}
</style>
<title>Facebook-color</title>
<desc>Created with Sketch.</desc>
<path class="st0" d="M44.4,0H3.5C1.6,0,0,1.5,0,3.5v41.1C0,46.4,1.6,48,3.5,48h40.9c2,0,3.6-1.6,3.6-3.5v-41C48,1.5,46.4,0,44.4,0z
	 M14.2,40.9H7.1V18h7.1V40.9z M10.7,14.8c-2.3,0-4.1-1.8-4.1-4.1c-0.1-2.2,1.8-4.1,4.1-4.1s4.1,1.8,4.1,4.1
	C14.8,13,13,14.8,10.7,14.8z M40.8,40.9h-7.1V29.8c0-2.7,0-6.1-3.7-6.1s-4.3,2.9-4.3,5.9v11.3h-7.1V18h0.1h6.8v3.1h0.1
	c0.9-1.8,3.3-3.7,6.7-3.7c7.2,0,8.5,4.7,8.5,10.9V40.9z"/>
</svg>
